<svg width="169" height="28" viewBox="0 0 169 28" fill="none" xmlns="http://www.w3.org/2000/svg">
<path d="M14.4797 21.023H0.541718V20.195L2.70372 18.493V4.762L0.265718 3.957L0.794718 2.922H14.2497L15.5837 2.508V7.913L14.7787 8.189L12.0187 4.095H5.83172V11.179H9.25872L10.9377 8.304H11.7657V15.227L10.7307 15.756L9.28172 12.352H5.83172V19.827H11.9037L15.0087 15.25L15.8137 15.549V21.437L14.4797 21.023ZM17.9856 14.077L18.9056 12.904H26.2886V13.709L25.3686 14.882H17.9856V14.077ZM49.7646 21.023H42.5426V20.195L44.7046 18.493V6.119L38.6556 21.023H37.2296L31.2036 5.958V18.815L33.6416 19.988L33.1356 21.023H27.6386V20.195L29.8006 18.493V5.199L27.3626 3.957L27.8916 2.922H33.1816L38.8166 17.021L44.4516 2.922H50.0176V3.75L47.8326 5.452V19.183L50.2706 19.988L49.7646 21.023ZM63.0785 21H58.5245V18.999L55.9255 21.046C55.6189 21.1687 55.2355 21.23 54.7755 21.23C53.4262 21.23 52.4525 20.9003 51.8545 20.241C51.2565 19.5663 50.9575 18.7537 50.9575 17.803C50.9575 17.251 51.1492 16.7067 51.5325 16.17C51.9159 15.618 52.4755 15.0967 53.2115 14.606H58.5245V13.364C58.5245 11.57 57.5662 10.673 55.6495 10.673C54.6835 10.673 53.4722 11.2173 52.0155 12.306L51.3255 11.34L54.6145 8.741C55.3199 8.58767 56.0865 8.511 56.9145 8.511C58.3712 8.511 59.4982 8.86367 60.2955 9.569C61.1082 10.2743 61.5145 11.294 61.5145 12.628V19.16L63.5845 19.965L63.0785 21ZM55.6035 19.045C56.5082 19.045 57.4819 18.6387 58.5245 17.826V15.664H54.5225C54.3385 15.894 54.2082 16.124 54.1315 16.354C54.0549 16.584 54.0165 16.837 54.0165 17.113C54.0165 17.6497 54.1622 18.1097 54.4535 18.493C54.7449 18.861 55.1282 19.045 55.6035 19.045ZM73.8628 10.512C74.2768 11.1253 74.4838 11.777 74.4838 12.467C74.4838 13.4637 74.0775 14.4143 73.2648 15.319C72.4522 16.2083 71.4632 16.8447 70.2978 17.228C69.8992 17.6573 69.6998 18.102 69.6998 18.562C69.6998 18.8073 69.8838 19.0373 70.2518 19.252C70.6198 19.4513 71.2102 19.7197 72.0228 20.057C73.0962 20.4863 73.9318 20.885 74.5298 21.253C75.1278 21.621 75.4268 22.0657 75.4268 22.587C75.4268 23.0623 75.1278 23.6603 74.5298 24.381C73.9318 25.1017 73.1882 25.7303 72.2988 26.267C71.4248 26.8037 70.5815 27.072 69.7688 27.072C68.8795 27.072 67.8368 26.9263 66.6408 26.635C65.4602 26.3437 64.4712 26.0523 63.6738 25.761V22.104H64.6628C65.5062 23.162 66.3572 23.9593 67.2158 24.496C68.0745 25.048 69.0482 25.324 70.1368 25.324C70.5508 25.324 70.9188 25.2473 71.2408 25.094C71.5782 24.9407 71.8388 24.7413 72.0228 24.496C72.2068 24.266 72.2988 24.0437 72.2988 23.829C72.2988 23.4303 72.0612 23.0853 71.5858 22.794C71.1258 22.5027 70.4128 22.1423 69.4468 21.713C68.5115 21.3143 67.8062 20.9693 67.3308 20.678C66.8555 20.3713 66.6178 20.0263 66.6178 19.643C66.6178 19.275 66.8632 18.8993 67.3538 18.516C67.8598 18.1327 68.4578 17.7953 69.1478 17.504C68.8105 17.5347 68.5575 17.55 68.3888 17.55C67.5608 17.55 66.7942 17.3737 66.0888 17.021C65.3988 16.653 64.8468 16.17 64.4328 15.572C64.0342 14.9587 63.8348 14.2993 63.8348 13.594C63.8348 12.7507 64.1338 11.938 64.7318 11.156C65.3298 10.3587 66.1042 9.72233 67.0548 9.247C68.0055 8.75633 68.9715 8.511 69.9528 8.511C71.0722 8.511 72.0458 8.81767 72.8738 9.431H76.5308L76.4848 10.512H73.8628ZM69.6768 15.503C70.3208 15.503 70.8115 15.342 71.1488 15.02C71.5015 14.698 71.6778 14.215 71.6778 13.571C71.6778 12.6817 71.3942 11.9687 70.8268 11.432C70.2595 10.8953 69.5082 10.627 68.5728 10.627C67.2542 10.627 66.5948 11.248 66.5948 12.49C66.5948 13.3947 66.8785 14.123 67.4458 14.675C68.0132 15.227 68.7568 15.503 69.6768 15.503ZM74.3228 0.874999C74.2922 1.50367 74.0162 2.14767 73.4948 2.807C72.9735 3.46633 72.3218 4.01067 71.5398 4.44C70.7578 4.86933 69.9988 5.084 69.2628 5.084C68.3428 5.084 67.4458 4.9 66.5718 4.532C65.7132 4.164 65.0768 3.589 64.6628 2.807L67.1238 0.874999C67.5072 1.82567 67.9212 2.50033 68.3658 2.899C68.8258 3.28233 69.3318 3.474 69.8838 3.474C70.3745 3.474 70.7732 3.35133 71.0798 3.106C71.3865 2.84533 71.5475 2.531 71.5628 2.163L74.3228 0.874999ZM88.3336 21H83.7796V18.999L81.1806 21.046C80.8739 21.1687 80.4906 21.23 80.0306 21.23C78.6813 21.23 77.7076 20.9003 77.1096 20.241C76.5116 19.5663 76.2126 18.7537 76.2126 17.803C76.2126 17.251 76.4043 16.7067 76.7876 16.17C77.1709 15.618 77.7306 15.0967 78.4666 14.606H83.7796V13.364C83.7796 11.57 82.8213 10.673 80.9046 10.673C79.9386 10.673 78.7273 11.2173 77.2706 12.306L76.5806 11.34L79.8696 8.741C80.5749 8.58767 81.3416 8.511 82.1696 8.511C83.6263 8.511 84.7533 8.86367 85.5506 9.569C86.3633 10.2743 86.7696 11.294 86.7696 12.628V19.16L88.8396 19.965L88.3336 21ZM80.8586 19.045C81.7633 19.045 82.7369 18.6387 83.7796 17.826V15.664H79.7776C79.5936 15.894 79.4633 16.124 79.3866 16.354C79.3099 16.584 79.2716 16.837 79.2716 17.113C79.2716 17.6497 79.4173 18.1097 79.7086 18.493C79.9999 18.861 80.3833 19.045 80.8586 19.045ZM98.1979 18.01L99.1869 16.101L99.9919 16.354V21.414L98.6119 21H89.2279V20.011L96.8409 11.731H91.2289L90.3089 13.433L89.5039 13.157V8.327L90.8839 8.741H100.268V9.73L92.7009 18.01H98.1979ZM113.589 21H109.035V18.999L106.436 21.046C106.129 21.1687 105.746 21.23 105.286 21.23C103.936 21.23 102.963 20.9003 102.365 20.241C101.767 19.5663 101.468 18.7537 101.468 17.803C101.468 17.251 101.659 16.7067 102.043 16.17C102.426 15.618 102.986 15.0967 103.722 14.606H109.035V13.364C109.035 11.57 108.076 10.673 106.16 10.673C105.194 10.673 103.982 11.2173 102.526 12.306L101.836 11.34L105.125 8.741C105.83 8.58767 106.597 8.511 107.425 8.511C108.881 8.511 110.008 8.86367 110.806 9.569C111.618 10.2743 112.025 11.294 112.025 12.628V19.16L114.095 19.965L113.589 21ZM106.114 19.045C107.018 19.045 107.992 18.6387 109.035 17.826V15.664H105.033C104.849 15.894 104.718 16.124 104.642 16.354C104.565 16.584 104.527 16.837 104.527 17.113C104.527 17.6497 104.672 18.1097 104.964 18.493C105.255 18.861 105.638 19.045 106.114 19.045ZM117.036 17.251C117.542 17.251 117.956 17.435 118.278 17.803C118.6 18.1557 118.761 18.5927 118.761 19.114C118.761 19.482 118.646 19.8347 118.416 20.172C118.186 20.494 117.895 20.7547 117.542 20.954C117.189 21.138 116.844 21.23 116.507 21.23C116.016 21.23 115.61 21.0537 115.288 20.701C114.966 20.333 114.805 19.8883 114.805 19.367C114.805 18.999 114.92 18.654 115.15 18.332C115.38 17.9947 115.671 17.734 116.024 17.55C116.377 17.3507 116.714 17.251 117.036 17.251ZM126.658 8.511C127.302 8.511 128.053 8.603 128.912 8.787C129.77 8.95567 130.391 9.14733 130.775 9.362V13.065H129.786C129.188 12.2983 128.505 11.7003 127.739 11.271C126.972 10.8263 126.175 10.604 125.347 10.604C124.672 10.604 124.158 10.9107 123.806 11.524C123.468 12.122 123.3 13.0037 123.3 14.169C123.3 15.5797 123.599 16.7527 124.197 17.688C124.81 18.6233 125.684 19.091 126.819 19.091C127.708 19.091 128.988 18.493 130.66 17.297L131.35 18.263L127.854 21.023C127.194 21.161 126.405 21.23 125.485 21.23C124.457 21.23 123.53 20.9693 122.702 20.448C121.889 19.9113 121.245 19.1907 120.77 18.286C120.31 17.3813 120.08 16.377 120.08 15.273C120.08 14.077 120.417 12.9653 121.092 11.938C121.782 10.8953 122.64 10.0673 123.668 9.454C124.695 8.82533 125.692 8.511 126.658 8.511ZM139.61 8.511C140.653 8.511 141.581 8.77933 142.393 9.316C143.221 9.83733 143.865 10.5503 144.326 11.455C144.785 12.3597 145.015 13.364 145.015 14.468C145.015 15.664 144.647 16.7833 143.912 17.826C143.191 18.8533 142.278 19.6813 141.174 20.31C140.07 20.9233 139.005 21.23 137.977 21.23C136.95 21.23 136.022 20.9693 135.194 20.448C134.382 19.9113 133.738 19.1907 133.262 18.286C132.802 17.3813 132.572 16.377 132.572 15.273C132.572 14.077 132.933 12.9653 133.653 11.938C134.389 10.8953 135.309 10.0673 136.413 9.454C137.517 8.82533 138.583 8.511 139.61 8.511ZM138.276 10.604C136.62 10.604 135.792 11.7923 135.792 14.169C135.792 15.595 136.091 16.7833 136.689 17.734C137.303 18.6847 138.177 19.16 139.311 19.16C140.124 19.16 140.737 18.8533 141.151 18.24C141.565 17.6267 141.772 16.7297 141.772 15.549C141.772 14.1383 141.466 12.9653 140.852 12.03C140.254 11.0793 139.396 10.604 138.276 10.604ZM167.757 21H163.203V13.272C163.203 12.4747 163.073 11.915 162.812 11.593C162.567 11.271 162.13 11.11 161.501 11.11C161.057 11.11 160.612 11.1943 160.167 11.363C159.723 11.5317 159.209 11.8537 158.626 12.329V19.206L160.673 19.965L160.167 21H155.636V13.272C155.636 12.4747 155.506 11.915 155.245 11.593C155 11.271 154.563 11.11 153.934 11.11C153.49 11.11 153.045 11.1943 152.6 11.363C152.156 11.5317 151.65 11.8537 151.082 12.329V19.229L153.106 19.988L152.6 21.023H146.045V20.195L148.092 18.562V12.306L146.045 11.087V10.259L150.139 8.304L150.921 11.202L153.911 8.695C154.264 8.57233 154.686 8.511 155.176 8.511C156.066 8.511 156.802 8.74867 157.384 9.224C157.982 9.684 158.366 10.328 158.534 11.156L161.478 8.695C161.831 8.57233 162.253 8.511 162.743 8.511C163.801 8.511 164.637 8.833 165.25 9.477C165.879 10.1057 166.193 10.9643 166.193 12.053V19.206L168.263 19.965L167.757 21Z" fill="black"/>
</svg>
